<svg width="32" height="32" viewBox="0 0 32 32" fill="none" xmlns="http://www.w3.org/2000/svg">
<path d="M26.2976 16.57C25.5363 15.8125 24.2913 15.8125 23.5301 16.57L23.4476 16.6525L23.3201 16.5287C22.5926 15.8237 21.4038 15.8237 20.6763 16.5287L18.2313 18.8837C17.8601 18.31 17.2263 17.95 16.5101 17.95H11.7063C10.7388 17.95 9.81259 18.31 9.10009 18.9625L5.24134 22.51C5.08759 22.6488 5.08009 22.8888 5.21884 23.0387C5.29384 23.1175 5.39509 23.1588 5.49634 23.1588C5.58634 23.1588 5.67634 23.125 5.75134 23.0613L9.61009 19.5138C10.1838 18.9888 10.9301 18.6962 11.7063 18.6962H16.5101C17.0876 18.6962 17.5901 19.0675 17.7588 19.615C17.7963 19.7425 17.8151 19.8663 17.8151 19.9938C17.8151 20.14 17.7888 20.2862 17.7401 20.425C17.6763 20.605 17.5751 20.7663 17.4363 20.905C17.1888 21.1525 16.8626 21.2875 16.5138 21.2875H13.7163C13.5101 21.2875 13.3413 21.4562 13.3413 21.6625C13.3413 21.8687 13.5101 22.0375 13.7163 22.0375H16.5138C17.0651 22.0375 17.5788 21.8237 17.9688 21.4375C18.1226 21.2838 18.2463 21.1112 18.3401 20.9237H20.0613C20.1588 20.9237 20.2563 20.8863 20.3276 20.815L23.7213 17.4363C23.7213 17.4363 23.7251 17.4362 23.7288 17.4325C23.7288 17.4325 23.7288 17.4287 23.7288 17.425L24.0588 17.095C24.5313 16.6262 25.2963 16.6262 25.7651 17.095C25.9938 17.3275 26.1213 17.6313 26.1213 17.95C26.1213 18.2688 25.9901 18.5725 25.7651 18.7975L20.6426 23.9012C19.9263 24.6137 18.9701 25.0075 17.9538 25.0075H11.0988C11.0013 25.0075 10.9038 25.045 10.8326 25.1163L9.33634 26.605C9.19009 26.7512 9.19009 26.9875 9.33634 27.1337C9.41134 27.2087 9.50509 27.2425 9.60259 27.2425C9.70009 27.2425 9.79384 27.205 9.86884 27.1337L11.2563 25.7537H17.9576C19.1763 25.7537 20.3201 25.285 21.1788 24.43L26.3013 19.3263C26.6651 18.9625 26.8751 18.46 26.8751 17.9462C26.8751 17.4325 26.6726 16.9375 26.2976 16.5625V16.57ZM19.9038 20.1813H18.5576C18.5613 20.1213 18.5651 20.0575 18.5651 19.9975C18.5651 19.8775 18.5501 19.7575 18.5276 19.6412L21.1938 17.0725C21.6363 16.645 22.3526 16.645 22.7951 17.0725L22.9113 17.185L19.9001 20.185L19.9038 20.1813ZM15.8913 16.735C15.9251 16.7462 15.9626 16.75 16.0001 16.75C16.0376 16.75 16.0713 16.7462 16.1088 16.735C19.7201 15.6512 21.6251 12.805 21.6251 8.5V6.25C21.6251 6.11875 21.5576 5.995 21.4413 5.9275L19.5663 4.8025C19.5063 4.76875 19.4426 4.75 19.3751 4.75H12.6251C12.5576 4.75 12.4901 4.76875 12.4338 4.8025L10.5588 5.9275C10.4463 5.995 10.3751 6.11875 10.3751 6.25V8.5C10.3751 12.805 12.2838 15.6512 15.8913 16.735ZM11.1251 6.46375L12.7301 5.5H19.2738L20.8788 6.46375V8.5C20.8788 12.4525 19.2401 14.9688 16.0038 15.9813C12.7676 14.9688 11.1288 12.4488 11.1288 8.5V6.46375H11.1251Z" fill="black" stroke="black" stroke-width="0.2"/>
<path d="M15.8725 15.1488C15.9138 15.1637 15.9587 15.1713 16 15.1713C16.0413 15.1713 16.0862 15.1637 16.1275 15.1488C18.8162 14.1625 20.125 11.9875 20.125 8.5V7.0975C20.125 6.96625 20.0575 6.8425 19.9412 6.775L19.15 6.3025C19.09 6.26875 19.0262 6.25 18.9587 6.25H13.0413C12.9738 6.25 12.9063 6.26875 12.85 6.3025L12.0587 6.775C11.9462 6.8425 11.875 6.96625 11.875 7.0975V8.5C11.875 11.9875 13.1837 14.1587 15.8725 15.1488ZM12.625 7.315L13.1462 7.00375H18.8575L19.3787 7.315V8.50375C19.3787 11.5788 18.2762 13.51 16.0037 14.3988C13.7312 13.51 12.6288 11.5788 12.6288 8.50375V7.315H12.625Z" fill="black" stroke="black" stroke-width="0.2"/>
<path d="M14.875 12.25C14.875 12.4563 15.0438 12.625 15.25 12.625H16.75C16.9562 12.625 17.125 12.4563 17.125 12.25V11.5H17.875C18.0813 11.5 18.25 11.3312 18.25 11.125V9.625C18.25 9.41875 18.0813 9.25 17.875 9.25H17.125V8.5C17.125 8.29375 16.9562 8.125 16.75 8.125H15.25C15.0438 8.125 14.875 8.29375 14.875 8.5V9.25H14.125C13.9187 9.25 13.75 9.41875 13.75 9.625V11.125C13.75 11.3312 13.9187 11.5 14.125 11.5H14.875V12.25ZM14.5 10.75V10H15.25C15.4562 10 15.625 9.83125 15.625 9.625V8.875H16.375V9.625C16.375 9.83125 16.5438 10 16.75 10H17.5V10.75H16.75C16.5438 10.75 16.375 10.9188 16.375 11.125V11.875H15.625V11.125C15.625 10.9188 15.4562 10.75 15.25 10.75H14.5Z" fill="black" stroke="black" stroke-width="0.2"/>
</svg>
