<svg width="60" height="60" viewBox="0 0 60 60" fill="none" xmlns="http://www.w3.org/2000/svg">
<path d="M30.4001 26.175C30.1501 26.15 29.8501 26.15 29.5751 26.175C23.6251 25.975 18.9001 21.1 18.9001 15.1C18.9001 8.975 23.8501 4 30.0001 4C36.1251 4 41.1001 8.975 41.1001 15.1C41.0751 21.1 36.3501 25.975 30.4001 26.175Z" stroke="black" stroke-width="3.5" stroke-linecap="round" stroke-linejoin="round"/>
<path d="M17.9 36.4C11.85 40.45 11.85 47.05 17.9 51.075C24.775 55.675 36.0501 55.675 42.9251 51.075C48.9751 47.025 48.9751 40.425 42.9251 36.4C36.0751 31.825 24.8 31.825 17.9 36.4Z" stroke="black" stroke-width="3.5" stroke-linecap="round" stroke-linejoin="round"/>
</svg>
