<svg width="32" height="32" viewBox="0 0 32 32" fill="none" xmlns="http://www.w3.org/2000/svg">
<path d="M15.245 18.6259C15.4355 18.8613 15.7216 18.997 16.0224 18.997C16.0434 18.997 16.0644 18.9965 16.0849 18.9951C16.4086 18.9746 16.7016 18.7993 16.8725 18.5239L19.3495 14.5268C19.6406 14.0571 19.4955 13.4409 19.0263 13.1499C18.5556 12.8588 17.9404 13.0034 17.6493 13.4731L15.914 16.2734L15.1264 15.3003C14.7783 14.8706 14.1484 14.8032 13.7201 15.1518C13.2905 15.499 13.2241 16.1289 13.5717 16.5581L15.245 18.6259Z" fill="black"/>
<path d="M11.9385 24.1103H12.499C12.9067 24.1103 13.3057 24.2759 13.5942 24.5639L13.9907 24.9604C14.6826 25.6523 15.5913 25.998 16.5 25.998C17.4087 25.998 18.3174 25.6523 19.0093 24.9604L19.4058 24.5639C19.6943 24.2759 20.0933 24.1103 20.501 24.1103H21.0615C23.0186 24.1103 24.6104 22.5185 24.6104 20.5615V20.001C24.6104 19.5933 24.7759 19.1943 25.064 18.9058L25.4604 18.5093C26.8442 17.1255 26.8442 14.8745 25.4604 13.4907L25.064 13.0942C24.7759 12.8057 24.6104 12.4067 24.6104 11.999V11.4385C24.6104 9.48144 23.0186 7.88964 21.0615 7.88964H20.501C20.0933 7.88964 19.6943 7.72411 19.4058 7.43603L19.0093 7.03955C17.6255 5.65576 15.3745 5.65576 13.9907 7.03955L13.5942 7.43603C13.3057 7.72412 12.9067 7.88964 12.499 7.88964H11.9385C9.98145 7.88964 8.38965 9.48144 8.38965 11.4385V11.999C8.38965 12.4067 8.22412 12.8057 7.93604 13.0942L7.53955 13.4907C6.15576 14.8745 6.15576 17.1255 7.53955 18.5093L7.93603 18.9057C8.22412 19.1943 8.38964 19.5932 8.38964 20.001V20.5615C8.38965 22.5185 9.98145 24.1103 11.9385 24.1103ZM8.95361 14.9048L9.3501 14.5083C10.0205 13.8379 10.3897 12.9468 10.3897 11.999V11.4385C10.3897 10.5845 11.0845 9.88964 11.9385 9.88964H12.499C13.4468 9.88964 14.3379 9.5205 15.0083 8.85009L15.4048 8.45361C16.0093 7.85009 16.9907 7.85009 17.5952 8.45361L17.9917 8.85009C18.6621 9.5205 19.5532 9.88964 20.501 9.88964H21.0615C21.9155 9.88964 22.6104 10.5845 22.6104 11.4385V11.999C22.6104 12.9468 22.9795 13.8379 23.6499 14.5083L24.0464 14.9048C24.6504 15.5088 24.6504 16.4912 24.0464 17.0952L23.6499 17.4917C22.9795 18.1621 22.6104 19.0532 22.6104 20.001V20.5615C22.6104 21.4155 21.9155 22.1104 21.0615 22.1104H20.501C19.5532 22.1104 18.6621 22.4795 17.9917 23.1499L17.5952 23.5464C16.9907 24.1499 16.0093 24.1499 15.4048 23.5464L15.0083 23.1499C14.3379 22.4795 13.4468 22.1103 12.499 22.1103H11.9385C11.0845 22.1103 10.3897 21.4155 10.3897 20.5615V20.001C10.3897 19.0532 10.0205 18.1621 9.3501 17.4917L8.95362 17.0952C8.34961 16.4912 8.34961 15.5088 8.95361 14.9048Z" fill="black"/>
</svg>
