<svg width="24" height="24" viewBox="0 0 24 24" fill="none" xmlns="http://www.w3.org/2000/svg">
<path d="M12 2.25L12.927 4.128L15 4.4295L13.5 5.89125L13.854 7.956L12 6.98175L10.146 7.956L10.5 5.89125L9 4.4295L11.073 4.128L12 2.25Z" stroke="black" stroke-width="1.5" stroke-miterlimit="10" stroke-linecap="round" stroke-linejoin="round"/>
<path d="M19.5 4.04395L20.427 5.92195L22.5 6.22345L21 7.68519L21.354 9.74995L19.5 8.77495L17.646 9.74995L18 7.68519L16.5 6.22345L18.573 5.92195L19.5 4.04395Z" stroke="black" stroke-width="1.5" stroke-miterlimit="10" stroke-linecap="round" stroke-linejoin="round"/>
<path d="M4.5 4.04395L3.573 5.92195L1.5 6.22345L3 7.68519L2.646 9.74995L4.5 8.77495L6.354 9.74995L6 7.68519L7.5 6.22345L5.427 5.92195L4.5 4.04395Z" stroke="black" stroke-width="1.5" stroke-miterlimit="10" stroke-linecap="round" stroke-linejoin="round"/>
<path d="M6 15H8.25C9.74775 13.98 10.584 12.6352 11.064 11.193C11.1892 10.8157 11.4427 10.5 11.8417 10.5C13.047 10.5 13.9103 11.634 13.5983 12.7867C13.3748 13.6102 13.1655 14.2185 12.75 15H16.212C16.8765 15 17.37 15.615 17.226 16.2637L16.188 20.9348C16.0807 21.411 15.6585 21.75 15.171 21.75H11.25C9.75 21.75 9.117 21.117 8.25 20.25H6" stroke="black" stroke-width="1.5" stroke-miterlimit="10" stroke-linecap="round" stroke-linejoin="round"/>
<path d="M3 14.2507L3 21.7507H6V14.2507H3Z" stroke="black" stroke-width="1.5" stroke-miterlimit="10" stroke-linecap="round" stroke-linejoin="round"/>
</svg>
