<svg width="12" height="12" viewBox="0 0 12 12" fill="none" xmlns="http://www.w3.org/2000/svg">
<path d="M8.46559 3.7657C8.66102 3.57023 8.97804 3.57019 9.17351 3.76562C9.36898 3.96111 9.36901 4.27813 9.17359 4.4736L5.41431 8.23388C5.21882 8.42935 4.9018 8.42938 4.70633 8.23396L2.82619 6.35425C2.63072 6.15883 2.63068 5.84181 2.82611 5.64634C3.0216 5.4508 3.33862 5.45076 3.53409 5.64626L5.0602 7.17201L8.46559 3.7657ZM5.99923 -2.95783e-06C7.65585 -0.00019336 9.15608 0.671319 10.242 1.75698C11.3279 2.84258 11.9998 4.34273 12 5.99927C12.0001 7.65609 11.3287 9.15612 10.243 10.242C9.15731 11.3279 7.65722 11.9998 6.00061 12C4.34387 12.0002 2.84376 11.3287 1.75792 10.243C0.67187 9.15735 0.000147607 7.65747 -4.28185e-05 6.00065C-0.000233213 4.34411 0.67128 2.8438 1.75694 1.75796C2.84254 0.67191 4.34249 0.00018746 5.99923 -2.95783e-06ZM9.53416 2.46498C8.62955 1.56064 7.37976 1.00129 5.99935 1.00145C4.61887 1.00161 3.36921 1.56125 2.46494 2.46579C1.5606 3.37034 1.00125 4.6202 1.00141 6.00054C1.00157 7.38108 1.56121 8.63075 2.46575 9.53501C3.37023 10.4394 4.62002 10.9986 6.0005 10.9985C7.38091 10.9983 8.63057 10.4387 9.53498 9.5342C10.4393 8.62973 10.9986 7.37993 10.9984 5.99939C10.9983 4.61905 10.4387 3.36931 9.53416 2.46498Z" fill="#008847"/>
</svg>
